# xmcd
#
# Track frame offsets: 
#        150
#        16182
#        29601
#        44689
#        59712
#        78128
#        94491
#        111254
#        122634
#        138800
#
# Disc length: 2065 seconds
#
# Revision: 6
# Processed by: cddbd v1.5.2PL0 Copyright (c) Steve Scherf et al.
# Submitted via: ExactAudioCopyFreeDBPlugin 1.0
#
DISCID=87080f0a
DTITLE=Olivia Newton-John - 1976 - Don't Stop Believin'
DYEAR=1976
DGENRE=Pop
TTITLE0=Don't Stop Believin'
TTITLE1=A Thousand Conversations
TTITLE2=Compassionate Man
TTITLE3=New-Born Babe
TTITLE4=Hey, Mr. Dreammaker
TTITLE5=Every Face Tells A Story
TTITLE6=Sam
TTITLE7=Love, You Hold The Key
TTITLE8=I'll Bet You A Kangaroo
TTITLE9=The Last Time You Loved
EXTD=more info - MillenniumMusicProjectFormat - SYNTAX=SongTitle{Subtit
EXTD=le}[miscInfo](Lyricist;Composer;Date,Artist,Location,State,Countr
EXTD=y) YEAR: 1976 ID3G: 13
EXTT0=
EXTT1=
EXTT2=
EXTT3=
EXTT4=
EXTT5=
EXTT6=
EXTT7=
EXTT8=
EXTT9=
PLAYORDER=
